<?xml version="1.0" encoding="UTF-8"?>
<svg id="Ebene_1" xmlns="http://www.w3.org/2000/svg" version="1.1" viewBox="0 0 600 70">
  <!-- Generator: Adobe Illustrator 29.2.0, SVG Export Plug-In . SVG Version: 2.1.0 Build 108)  -->
  <defs>
    <style>
      .st0 {
        fill: #fff;
      }

      .st1 {
        display: none;
      }
    </style>
  </defs>
  <g id="Waldgeflüster_x5F_white">
    <path id="_x21_" class="st0" d="M594.8,66.8c0-1.4,1.1-2.6,2.6-2.6s2.6,1.2,2.6,2.6-1.1,2.6-2.6,2.6-2.6-1.2-2.6-2.6M599.2,59.2h-3.7V8.6h3.7v50.6Z"/>
    <path id="R" class="st0" d="M556.1,11.9c1.1,0,2.1.4,2.7,1.1.5.6.9,1.4.9,2.5v19c0,1.1-.4,1.9-.9,2.5-.6.7-1.7,1-2.7,1.1h-3V11.9h3ZM563.6,15.4c0-2.1-.8-3.8-2-4.9-1.4-1.2-3-1.8-5.4-1.8h-6.7v60.6h3.8v-27.5h3.1c1.1,0,2,.4,2.6,1.1.5.6.9,1.4.9,2.4v24h3.9v-24.5c0-2.1-.8-3.8-2-4.9,0,0-.2-.2-.2-.2,0,0,.2-.2.2-.2,1.3-1.1,2-2.8,2-4.9V15.4Z"/>
    <polygon id="E" class="st0" points="518.2 12.5 518.2 8.6 506 8.6 506 69.2 518.2 69.2 518.2 65.5 509.8 65.5 509.8 41.8 515.3 41.8 515.3 38 509.8 38 509.8 12.5 518.2 12.5"/>
    <polygon id="T" class="st0" points="460.6 8.7 460.6 12.5 465.8 12.5 465.8 69.2 469.6 69.2 469.6 12.5 474.8 12.5 474.8 8.7 460.6 8.7"/>
    <path id="S" class="st0" d="M429.4,15.7c0-2.1-.8-3.8-2-5-1.4-1.2-3-1.8-5.4-1.8s-2.3.2-3.3.5c-.9.3-1.7.8-2.4,1.4-.6.5-1.1,1.3-1.5,2-.4.8-.5,1.8-.5,2.9,0,2.9,0,5.5.2,7.9.3,2.3.8,4.5,1.3,6.4.5,1.9,1.1,3.7,1.7,5.4.7,1.7,2,4.9,2,4.9.7,1.6,1.2,3.2,1.9,4.9.8,2.3,1.5,5,2,7.9.6,2.9.8,6.3.8,10.1s-.2,1.8-.8,2.5c-.5.7-1.7,1-2.8,1s-2.3-.3-2.9-1c-.5-.7-.8-1.5-.8-2.5v-12.1h-3.9v12.1c0,2.1.8,3.7,2,4.9,1.4,1.2,3,1.8,5.4,1.8s2.3-.2,3.3-.5c.9-.4,1.7-.8,2.4-1.4.6-.6,1.1-1.3,1.5-2.1.4-.8.5-1.7.5-2.8,0-3,0-5.6-.2-7.9-.3-2.3-.8-4.5-1.3-6.4-.5-2-1.1-3.8-1.7-5.4-.5-1.1-.8-2-1.2-3.2-1-2-1.9-4.3-2.7-6.7-.8-2.3-1.5-5-2-7.9-.6-2.9-.8-6.3-.8-10.1s.2-1.9.8-2.5c.5-.7,1.7-1.1,2.8-1.1s2.3.4,2.9,1.1c.5.6.9,1.4.9,2.5v12h3.9v-12Z"/>
    <g id="_Ü" data-name="Ü">
      <path id="U" class="st0" d="M377.9,62.7c0,1-.2,1.8-.8,2.5-.6.7-1.4,1-2.5,1s-1.8-.3-2.3-1c-.6-.7-.8-1.5-.8-2.5V8.5h-3.9v54.2c0,1.1,0,2,.3,2.8.3.8.7,1.4,1.4,2,.7.6,1.4,1.1,2.3,1.4,1,.3,2,.5,3.2.5,2.4,0,3.6-.6,4.9-1.8,1.3-1.1,2.2-2.7,2.2-4.8V8.5h-3.9v54.1Z"/>
      <g id="Punkte">
        <path class="st0" d="M369.6,5.5c1.5,0,2.7-1.2,2.7-2.7S371.1,0,369.6,0s-2.7,1.2-2.7,2.7,1.2,2.7,2.7,2.7"/>
        <path class="st0" d="M379.6,5.5c1.5,0,2.7-1.2,2.7-2.7S381.1,0,379.6,0s-2.7,1.2-2.7,2.7,1.2,2.7,2.7,2.7"/>
      </g>
    </g>
    <polygon id="L" class="st0" points="328.1 8.6 324.3 8.6 324.3 69.2 336.3 69.2 336.3 65.5 328.1 65.5 328.1 8.6"/>
    <polygon id="F" class="st0" points="293.1 8.6 281 8.6 281 69.2 284.8 69.2 284.8 41.8 290.3 41.8 290.3 38 284.8 38 284.8 12.5 293.1 12.5 293.1 8.6"/>
    <polygon id="E1" data-name="E" class="st0" points="249.8 12.5 249.8 8.6 237.7 8.6 237.7 69.2 249.8 69.2 249.8 65.5 241.5 65.5 241.5 41.8 247 41.8 247 38 241.5 38 241.5 12.5 249.8 12.5"/>
    <path id="G" class="st0" d="M206.5,32.1V14.9c0-2.1-.9-3.7-2.2-4.9-1.4-1.2-2.5-1.8-4.9-1.8s-2.2.2-3.2.5c-.9.3-1.6.8-2.3,1.3-.7.6-1.1,1.3-1.4,2.1-.4.8-.3,1.7-.3,2.8v47.7c0,1.1,0,2,.3,2.8.3.8.7,1.4,1.4,2,.7.6,1.4,1.1,2.3,1.4,1,.3,2,.5,3.2.5,2.4,0,3.6-.6,4.9-1.8,1.3-1.1,2.2-2.7,2.2-4.8v-22.2h-6.3v3.9h2.4v18.2c0,1-.2,1.8-.8,2.5-.6.7-1.4,1-2.5,1s-1.8-.3-2.3-1c-.6-.7-.8-1.5-.8-2.5V14.9c0-1,.2-1.8.8-2.4.5-.7,1.2-1.1,2.3-1.1s1.9.4,2.5,1.1c.6.6.8,1.4.8,2.4v17.2h3.9Z"/>
    <path id="D" class="st0" d="M150.7,66V11.9h3c1.1,0,2.1.4,2.7,1.1.5.6.9,1.4.9,2.5v47.1c0,1-.4,1.8-.9,2.5-.6.7-1.7,1-2.7,1h-3ZM146.9,8.7v60.6h6.7c2.5,0,4.1-.6,5.4-1.8,1.3-1.2,2-2.8,2-4.9V15.4c0-2.1-.8-3.8-2-4.9-1.4-1.2-3-1.8-5.4-1.8h-6.7Z"/>
    <polygon id="L1" data-name="L" class="st0" points="107.5 8.6 103.7 8.6 103.7 69.2 115.7 69.2 115.7 65.5 107.5 65.5 107.5 8.6"/>
    <path id="A" class="st0" d="M65.3,30.5l2.2,24.6h-4.3l2.1-24.6ZM72.5,69.2l-5.3-60.6h-3.8l-5.3,60.6h3.8l.9-10.4h5l.9,10.4h3.8Z"/>
    <polygon id="W" class="st0" points="23.2 8.6 19 49.4 15.4 8.6 11.6 8.6 7.9 49.4 3.8 8.6 0 8.6 6.2 69.2 10 69.2 13.5 30 17 69.2 20.7 69.2 26.9 8.6 23.2 8.6"/>
  </g>
  <g id="Waldgeflüster_x5F_white1" data-name="Waldgeflüster_x5F_white" class="st1">
    <path id="_x21_1" data-name="_x21_" class="st0" d="M594.8,66.8c0-1.4,1.1-2.6,2.6-2.6s2.6,1.2,2.6,2.6-1.1,2.6-2.6,2.6-2.6-1.2-2.6-2.6M599.2,59.2h-3.7V8.6h3.7v50.6Z"/>
    <path id="R1" data-name="R" class="st0" d="M556.1,11.9c1.1,0,2.1.4,2.7,1.1.5.6.9,1.4.9,2.5v19c0,1.1-.4,1.9-.9,2.5-.6.7-1.7,1-2.7,1.1h-3V11.9h3ZM563.6,15.4c0-2.1-.8-3.8-2-4.9-1.4-1.2-3-1.8-5.4-1.8h-6.7v60.6h3.8v-27.5h3.1c1.1,0,2,.4,2.6,1.1.5.6.9,1.4.9,2.4v24h3.9v-24.5c0-2.1-.8-3.8-2-4.9,0,0-.2-.2-.2-.2,0,0,.2-.2.2-.2,1.3-1.1,2-2.8,2-4.9V15.4Z"/>
    <polygon id="E2" data-name="E" class="st0" points="518.2 12.5 518.2 8.6 506 8.6 506 69.2 518.2 69.2 518.2 65.5 509.8 65.5 509.8 41.8 515.3 41.8 515.3 38 509.8 38 509.8 12.5 518.2 12.5"/>
    <polygon id="T1" data-name="T" class="st0" points="460.6 8.7 460.6 12.5 465.8 12.5 465.8 69.2 469.6 69.2 469.6 12.5 474.8 12.5 474.8 8.7 460.6 8.7"/>
    <path id="S1" data-name="S" class="st0" d="M429.4,15.7c0-2.1-.8-3.8-2-5-1.4-1.2-3-1.8-5.4-1.8s-2.3.2-3.3.5c-.9.3-1.7.8-2.4,1.4-.6.5-1.1,1.3-1.5,2-.4.8-.5,1.8-.5,2.9,0,2.9,0,5.5.2,7.9.3,2.3.8,4.5,1.3,6.4.5,1.9,1.1,3.7,1.7,5.4.7,1.7,2,4.9,2,4.9.7,1.6,1.2,3.2,1.9,4.9.8,2.3,1.5,5,2,7.9.6,2.9.8,6.3.8,10.1s-.2,1.8-.8,2.5c-.5.7-1.7,1-2.8,1s-2.3-.3-2.9-1c-.5-.7-.8-1.5-.8-2.5v-12.1h-3.9v12.1c0,2.1.8,3.7,2,4.9,1.4,1.2,3,1.8,5.4,1.8s2.3-.2,3.3-.5c.9-.4,1.7-.8,2.4-1.4.6-.6,1.1-1.3,1.5-2.1.4-.8.5-1.7.5-2.8,0-3,0-5.6-.2-7.9-.3-2.3-.8-4.5-1.3-6.4-.5-2-1.1-3.8-1.7-5.4-.5-1.1-.8-2-1.2-3.2-1-2-1.9-4.3-2.7-6.7-.8-2.3-1.5-5-2-7.9-.6-2.9-.8-6.3-.8-10.1s.2-1.9.8-2.5c.5-.7,1.7-1.1,2.8-1.1s2.3.4,2.9,1.1c.5.6.9,1.4.9,2.5v12h3.9v-12Z"/>
    <g id="_Ü1" data-name="Ü">
      <path id="U1" data-name="U" class="st0" d="M377.9,62.7c0,1-.2,1.8-.8,2.5-.6.7-1.4,1-2.5,1s-1.8-.3-2.3-1c-.6-.7-.8-1.5-.8-2.5V8.5h-3.9v54.2c0,1.1,0,2,.3,2.8.3.8.7,1.4,1.4,2,.7.6,1.4,1.1,2.3,1.4,1,.3,2,.5,3.2.5,2.4,0,3.6-.6,4.9-1.8,1.3-1.1,2.2-2.7,2.2-4.8V8.5h-3.9v54.1Z"/>
      <g id="Punkte1" data-name="Punkte">
        <path class="st0" d="M369.6,5.5c1.5,0,2.7-1.2,2.7-2.7S371.1,0,369.6,0s-2.7,1.2-2.7,2.7,1.2,2.7,2.7,2.7"/>
        <path class="st0" d="M379.6,5.5c1.5,0,2.7-1.2,2.7-2.7S381.1,0,379.6,0s-2.7,1.2-2.7,2.7,1.2,2.7,2.7,2.7"/>
      </g>
    </g>
    <polygon id="L2" data-name="L" class="st0" points="328.1 8.6 324.3 8.6 324.3 69.2 336.3 69.2 336.3 65.5 328.1 65.5 328.1 8.6"/>
    <polygon id="F1" data-name="F" class="st0" points="293.1 8.6 281 8.6 281 69.2 284.8 69.2 284.8 41.8 290.3 41.8 290.3 38 284.8 38 284.8 12.5 293.1 12.5 293.1 8.6"/>
    <polygon id="E3" data-name="E" class="st0" points="249.8 12.5 249.8 8.6 237.7 8.6 237.7 69.2 249.8 69.2 249.8 65.5 241.5 65.5 241.5 41.8 247 41.8 247 38 241.5 38 241.5 12.5 249.8 12.5"/>
    <path id="G1" data-name="G" class="st0" d="M206.5,32.1V14.9c0-2.1-.9-3.7-2.2-4.9-1.4-1.2-2.5-1.8-4.9-1.8s-2.2.2-3.2.5c-.9.3-1.6.8-2.3,1.3-.7.6-1.1,1.3-1.4,2.1-.4.8-.3,1.7-.3,2.8v47.7c0,1.1,0,2,.3,2.8.3.8.7,1.4,1.4,2,.7.6,1.4,1.1,2.3,1.4,1,.3,2,.5,3.2.5,2.4,0,3.6-.6,4.9-1.8,1.3-1.1,2.2-2.7,2.2-4.8v-22.2h-6.3v3.9h2.4v18.2c0,1-.2,1.8-.8,2.5-.6.7-1.4,1-2.5,1s-1.8-.3-2.3-1c-.6-.7-.8-1.5-.8-2.5V14.9c0-1,.2-1.8.8-2.4.5-.7,1.2-1.1,2.3-1.1s1.9.4,2.5,1.1c.6.6.8,1.4.8,2.4v17.2h3.9Z"/>
    <path id="D1" data-name="D" class="st0" d="M150.7,66V11.9h3c1.1,0,2.1.4,2.7,1.1.5.6.9,1.4.9,2.5v47.1c0,1-.4,1.8-.9,2.5-.6.7-1.7,1-2.7,1h-3ZM146.9,8.7v60.6h6.7c2.5,0,4.1-.6,5.4-1.8,1.3-1.2,2-2.8,2-4.9V15.4c0-2.1-.8-3.8-2-4.9-1.4-1.2-3-1.8-5.4-1.8h-6.7Z"/>
    <polygon id="L3" data-name="L" class="st0" points="107.5 8.6 103.7 8.6 103.7 69.2 115.7 69.2 115.7 65.5 107.5 65.5 107.5 8.6"/>
    <path id="A1" data-name="A" class="st0" d="M65.3,30.5l2.2,24.6h-4.3l2.1-24.6ZM72.5,69.2l-5.3-60.6h-3.8l-5.3,60.6h3.8l.9-10.4h5l.9,10.4h3.8Z"/>
    <polygon id="W1" data-name="W" class="st0" points="23.2 8.6 19 49.4 15.4 8.6 11.6 8.6 7.9 49.4 3.8 8.6 0 8.6 6.2 69.2 10 69.2 13.5 30 17 69.2 20.7 69.2 26.9 8.6 23.2 8.6"/>
  </g>
</svg>