<?xml version="1.0" encoding="utf-8"?>
<!-- Generator: Adobe Illustrator 19.1.0, SVG Export Plug-In . SVG Version: 6.00 Build 0)  -->
<svg version="1.1" id="Ebene_1" xmlns="http://www.w3.org/2000/svg" xmlns:xlink="http://www.w3.org/1999/xlink" x="0px" y="0px"
	 viewBox="0 0 409 209.7" style="enable-background:new 0 0 409 209.7;" xml:space="preserve">
<style type="text/css">
	.st0{fill-rule:evenodd;clip-rule:evenodd;fill:#213A8F;}
	.st1{fill-rule:evenodd;clip-rule:evenodd;fill:#B61F29;}
	.st2{fill-rule:evenodd;clip-rule:evenodd;fill:#FFFFFF;}
	.st3{fill:#B61F29;}
	.st4{fill:#213A8F;}
	.st5{fill:#DD0B2F;}
</style>
<ellipse class="st0" cx="204.5" cy="104.9" rx="204.5" ry="104.9"/>
<g>
	<path class="st1" d="M103.5,161.5c32.3,15,77.6,24.3,127.5,24.3c97.9,0,177.8-35.8,177.8-79.8S328.9,26.2,231,26.2
		c-47.5,0-90.7,8.4-122.7,22.1L93.4,31.4h-7.7L16.6,102l65.2,72.9l8.7,0.2L103.5,161.5z"/>
	<path class="st2" d="M231,31.1c94.9,0,172.2,33.6,172.2,74.8c0,41.2-77.4,74.8-172.2,74.8c-48.6,0-92.6-8.8-124-23l24.3-25.3
		l-1.5-3.2L90,169.4l-62-67.1L93.2,37l41.8,46.9h4.5l-27.9-31.8C142.6,39.1,184.7,31.1,231,31.1z"/>
</g>
<g>
	<g>
		<path class="st3" d="M104.8,90.5c-2-3.3-4.6-5.9-7.7-7.7C94,80.9,90.6,80,87,80c-5.4,0-10,2.2-13.5,6.6c-3.6,4.4-5.4,9.6-5.4,15.7
			c0,6.8,1.7,12.5,5.2,16.8c3.7,4.6,8.6,7,14.8,7c3.4,0,6.9-1.2,10.3-3.7c3.4-2.5,5.6-5.4,6.5-8.9H91.5v-12.6h27.9
			c0,11.2-2.8,20.2-8.4,27c-5.9,7.2-13.9,10.7-24.1,10.7c-9.5,0-17.3-3.4-23.4-10.1c-6.1-6.7-9.1-15.3-9.1-25.7
			c0-10.5,3.1-19.1,9.3-25.8C69.8,70.4,77.7,67,87.3,67c6.3,0,11.5,1.1,15.5,3.4c3.7,2.1,7.7,5.8,12,11.3L104.8,90.5z"/>
	</g>
</g>
<g>
	<path class="st4" d="M166.3,72.6h-0.6l-0.1-0.6c-0.2-0.8-0.4-1.8-0.6-2.3l-3.6-12.6c-0.4-1.5-0.9-1.9-2.3-2v-0.9
		c1.5,0.2,2.1,0.2,3.5,0.2c1.4,0,2-0.1,3.5-0.2v0.9c-1.4,0.1-1.8,0.3-1.8,0.9c0,0.2,0.1,0.5,0.2,1l2.7,9.5l4.3-12.7h0.6l4.1,12.8
		l2.8-9.4c0.2-0.5,0.2-0.9,0.2-1.2c0-0.6-0.3-0.8-1.7-0.9v-0.9c1.1,0.1,1.6,0.1,2.4,0.1c0.9,0,1.3,0,2.4-0.1v0.9
		c-1.5,0.1-1.9,0.5-2.3,1.8l-3.8,12.5c-0.2,0.7-0.3,1.3-0.4,1.6l-0.2,1l-0.1,0.6h-0.6c-0.2-0.9-0.5-1.8-0.7-2.7L170.7,59l-3.5,10.5
		L167,70c-0.2,0.7-0.3,1-0.5,2L166.3,72.6z"/>
	<path class="st4" d="M198.1,63.3c0,5.8-2.9,9.4-7.6,9.4c-4.7,0-7.6-3.6-7.6-9.3c0-5.7,3-9.3,7.6-9.3S198.1,57.6,198.1,63.3z
		 M194.9,63.1c0-5.5-1.5-8.3-4.3-8.3c-2.9,0-4.5,3-4.5,8.4c0,5.7,1.5,8.7,4.4,8.7C193.4,71.8,194.9,68.9,194.9,63.1z"/>
	<path class="st4" d="M213.3,67.5l-0.8,4.7H200v-0.9c2-0.1,2.2-0.3,2.2-1.8V57c0-1.5-0.3-1.8-2.2-1.8v-0.9c1.8,0.2,2.5,0.2,3.8,0.2
		c1.3,0,2,0,3.8-0.2v0.9c-2,0.1-2.3,0.3-2.3,1.8v12.8c0,1.2,0.3,1.5,1.6,1.5h1.6c1.7,0,2.5-0.5,3.3-2c0.3-0.7,0.5-1,0.7-1.8H213.3z"
		/>
	<path class="st4" d="M219.6,63.4v6.2c0,1.6,0.2,1.7,2.3,1.8v0.9c-1.7-0.2-2.4-0.2-3.8-0.2c-1.4,0-2,0-3.8,0.2v-0.9
		c2-0.1,2.3-0.3,2.3-1.8V57.1c0-1.5-0.2-1.7-2.3-1.8v-0.9h12.4l0.6,4.4h-0.8c-0.7-2.8-1.4-3.5-3.5-3.5h-3.5v7.2h3.3
		c1.2,0,1.4-0.3,1.6-2.2h0.9v5.4h-0.9c-0.1-1.8-0.4-2.2-1.6-2.2H219.6z"/>
	<path class="st4" d="M243.1,54v5.8h-0.8c-0.4-1.4-0.5-1.7-1-2.6c-0.8-1.4-2.3-2.3-4-2.3c-3.3,0-5,2.8-5,8.2c0,5.8,1.6,8.5,4.9,8.5
		c1,0,1.7-0.2,3.2-0.8v-4.6c0-1.1-0.3-1.3-2-1.4V64c1.5,0.1,2.1,0.2,3.3,0.2c1.2,0,1.8,0,3.3-0.2v0.9c-1.6,0.1-1.8,0.3-1.8,1.5v4.1
		c-2.1,1.4-4.2,2.1-6.4,2.1c-4.8,0-7.8-3.5-7.8-9.3c0-5.7,3-9.2,7.7-9.2c1.9,0,3.2,0.5,4.7,1.7l1-1.8H243.1z"/>
	<path class="st4" d="M256,67.3h-6l-0.8,2.1c-0.2,0.7-0.3,1-0.3,1.2c0,0.6,0.3,0.8,1.8,0.8v0.9c-1.4-0.1-1.9-0.1-2.7-0.1
		c-0.9,0-1.3,0-2.7,0.1v-0.9c1.8-0.1,2.2-0.5,2.9-2.4l6-15.4l5.7,16c0.5,1.4,0.9,1.7,2.6,1.8v0.9c-1.6-0.2-2.3-0.2-3.8-0.2
		c-1.4,0-2.1,0-3.7,0.2v-0.9c1.5-0.1,1.8-0.2,1.8-0.8c0-0.1,0-0.3-0.1-0.5l-0.1-0.5L256,67.3z M250.4,66.3h5.3l-2.4-7.5L250.4,66.3z
		"/>
	<path class="st4" d="M278.3,72.7h-0.5c-0.9-1.4-1-1.7-1.4-2.2l-1-1.4l-0.6-0.9l-7.9-11.1v12.4c0,1.6,0.2,1.7,2.2,1.8v0.9
		c-1.4-0.1-1.9-0.1-2.8-0.1c-0.9,0-1.4,0-2.7,0.1v-0.9c2-0.1,2.2-0.3,2.2-1.8V56.1c-0.7-0.7-1.2-0.9-2.3-0.9v-0.9
		c1.1,0.1,1.6,0.1,2.5,0.1c0.9,0,1.3,0,2.3-0.1l8.9,12.4V57c0-1.5-0.3-1.8-2.2-1.8v-0.9c1.3,0.1,1.8,0.1,2.8,0.1
		c0.9,0,1.4,0,2.7-0.1v0.9c-2,0.1-2.2,0.3-2.2,1.8V72.7z"/>
	<path class="st4" d="M295.6,54v5.8h-0.8c-0.4-1.4-0.5-1.7-1-2.6c-0.8-1.4-2.3-2.3-4-2.3c-3.3,0-5,2.8-5,8.2c0,5.8,1.6,8.5,4.9,8.5
		c1,0,1.7-0.2,3.2-0.8v-4.6c0-1.1-0.3-1.3-2-1.4V64c1.5,0.1,2.1,0.2,3.3,0.2c1.2,0,1.8,0,3.3-0.2v0.9c-1.6,0.1-1.8,0.3-1.8,1.5v4.1
		c-2.1,1.4-4.2,2.1-6.4,2.1c-4.8,0-7.8-3.5-7.8-9.3c0-5.7,3-9.2,7.7-9.2c1.9,0,3.2,0.5,4.7,1.7l1-1.8H295.6z"/>
</g>
<g>
	<path class="st4" d="M157.8,89.4v-2.1c3.9,0.2,5.4,0.3,8,0.3c2.6,0,4-0.1,7.7-0.3v2.1c-5.6,0.2-6.5,0.8-6.5,4.6v22.6
		c0,5-0.8,7.6-3,10.2c-3.2,3.7-8.4,5.6-15,5.6c-6.1,0-11.1-1.7-14.4-4.8c-2.7-2.7-3.7-5.4-3.7-10.4V93.9c0-3.8-0.9-4.4-6.5-4.6v-2.1
		c5.2,0.4,7.2,0.5,10.8,0.5c3.7,0,5.7-0.1,10.9-0.5v2.1c-5.6,0.2-6.5,0.8-6.5,4.6v24.4c0,3.7,0.6,5.8,2.2,7.4
		c2.1,2.1,5.3,3.1,9.4,3.1c5,0,9.4-1.7,11.2-4.6c1.3-1.9,1.8-4.1,1.8-8V93.9C164.3,90.1,163.5,89.6,157.8,89.4z"/>
	<path class="st4" d="M179.7,117.6h2.3c0.7,3.7,1.2,4.9,2.9,7.2c2.2,3.1,6.4,5,10.8,5c5.8,0,10.2-3.4,10.2-8c0-2.5-1.3-4.8-3.7-6.3
		c-1.8-1.1-2.2-1.4-7.4-3.7c-7.7-3.5-10.1-4.9-11.8-7c-1.6-1.8-2.4-4-2.4-6.6c0-6.9,6.3-11.6,15.7-11.6c4.6,0,7.6,1,10.9,3.6l2.6-4
		h1.5v13.1H209c-1.6-7-5.4-10.4-11.6-10.4c-5.3,0-9.2,3.1-9.2,7.4c0,3.1,1.5,4.5,8,7.4c7,3.3,9.8,4.6,12,6c3.6,2.2,5.4,5.4,5.4,9.4
		c0,7.6-6.6,13-16,13c-5.1,0-9-1.2-13.2-4.1l-3,4.7h-1.5V117.6z"/>
	<path class="st4" d="M241.1,129.7v2.1c-5.3-0.4-7.4-0.5-10.9-0.5c-3.6,0-5.6,0.1-10.9,0.5v-2.1c5.8-0.3,6.5-0.7,6.5-4.6V93.9
		c0-3.8-0.8-4.4-6.5-4.6v-2.1c5.2,0.4,7.3,0.5,10.9,0.5c3.6,0,5.7-0.1,10.9-0.5v2.1c-5.7,0.2-6.5,0.8-6.5,4.6v31.2
		C234.6,129,235.3,129.5,241.1,129.7z"/>
	<path class="st4" d="M287.8,132.9h-1.5c-2.5-3.4-3-4.1-4-5.4l-2.9-3.4l-1.9-2.3l-22.7-27.4v30.8c0,3.8,0.7,4.3,6.4,4.6v2.1
		c-4-0.2-5.5-0.3-8-0.3c-2.5,0-3.9,0.1-7.7,0.3v-2.1c5.7-0.3,6.4-0.7,6.4-4.6V91.7c-2-1.7-3.4-2.1-6.6-2.3v-2.1
		c3.2,0.2,4.6,0.3,7.2,0.3c2.6,0,3.8-0.1,6.7-0.3l25.6,30.7v-24c0-3.8-0.8-4.4-6.4-4.6v-2.1c3.8,0.2,5.3,0.3,8,0.3
		c2.6,0,4-0.1,7.7-0.3v2.1c-5.7,0.2-6.4,0.8-6.4,4.6V132.9z"/>
	<path class="st4" d="M298.3,89.6v-2.1H319c7.4,0,12.2,1.4,16,4.5c5.1,4.2,8,10.6,8,17.5c0,7.1-3.3,14-8.4,17.8
		c-4.3,3.1-9.4,4.4-17.2,4.4h-19.2v-2.1c5.7-0.3,6.4-0.8,6.4-4.6V94.1C304.7,90.3,304,89.8,298.3,89.6z M313.5,89.7v36.5
		c0,2.7,0.6,3.2,4.4,3.2c5.6,0,9.3-1.2,11.6-3.7c3.1-3.4,4.6-9,4.6-16.6c0-13.3-4.8-19.3-15.3-19.3H313.5z"/>
	<path class="st4" d="M387,120l-2.2,11.7h-36.1v-2.1c5.7-0.3,6.4-0.8,6.4-4.6V94.1c0-3.8-0.7-4.3-6.4-4.6v-2.1h35.6l1.9,11H384
		c-1.9-6.9-3.9-8.7-10-8.7h-10.1v17.8h9.6c3.5,0,4.2-0.9,4.6-5.5h2.5v13.3h-2.5c-0.2-4.4-1.1-5.5-4.6-5.5h-9.6v15.8
		c0,3,0.9,3.6,4.7,3.6h4.6c4.9,0,7.2-1.2,9.5-4.9c1-1.7,1.3-2.5,2-4.4H387z"/>
</g>
<g>
	<path class="st5" d="M129.9,149.5l-0.1,7.3v0.1c0,0.8,0.2,0.9,1.3,0.9v0.6c-0.7,0-1,0-1.5,0c-0.5,0-0.8,0-1.6,0v-0.6
		c1.1,0,1.2-0.1,1.3-1l0.1-6.8v-0.1c0-0.8-0.2-1-1.3-1v-0.6c0.7,0.1,1,0.1,1.7,0.1c0.7,0,1,0,1.8-0.1l2.7,6.5l2.7-6.5
		c0.7,0.1,1,0.1,1.7,0.1c0.7,0,0.9,0,1.6-0.1v0.6c-1.1,0-1.3,0.2-1.3,1v0.1l0.1,6.8c0,0.9,0.1,1,1.3,1v0.6c-1-0.1-1.4-0.1-2.2-0.1
		c-0.8,0-1.2,0-2.3,0.1v-0.6c1.1,0,1.3-0.2,1.3-1v-0.1l-0.1-7.2l-2.7,6.6c-0.2,0.4-0.3,0.9-0.5,1.5l-0.1,0.3h-0.3l-0.1-0.3l-0.2-0.6
		l-0.2-0.6l-0.2-0.4L129.9,149.5z"/>
	<path class="st5" d="M149.2,155.5l-0.5,2.8h-7.2v-0.6c1.1,0,1.3-0.2,1.3-1V150c0-0.9-0.2-1-1.3-1v-0.6h7.1l0.4,2.6h-0.5
		c-0.4-1.6-0.8-2.1-2-2.1h-1.8v3.9h1.7c0.7,0,0.8-0.2,0.9-1.2h0.6v3h-0.6c0-1-0.2-1.2-0.9-1.2h-1.7v3.5c0,0.6,0.1,0.8,0.9,0.8h0.8
		c1,0,1.4-0.3,1.9-1.2c0.2-0.4,0.3-0.6,0.4-1H149.2z"/>
	<path class="st5" d="M155.5,148.9v7.8c0,0.9,0.1,1,1.3,1v0.6c-1-0.1-1.3-0.1-2.2-0.1c-0.9,0-1.3,0-2.3,0.1v-0.6
		c1.1,0,1.3-0.1,1.3-1v-7.8h-0.4c-1.2,0-1.8,0.6-2.1,2.2h-0.5l0.5-2.8h7.2l0.5,2.8h-0.5c-0.4-1.6-0.9-2.2-2.1-2.2H155.5z"/>
	<path class="st5" d="M159.6,158.3l5.1-9.4h-1.4c-1.3,0-1.9,0.5-2.5,2h-0.5l0.4-2.6h6.5l-5.1,9.4h2.3c1,0,1.5-0.3,2-1.1
		c0.3-0.4,0.3-0.7,0.5-1.3h0.5l-0.5,2.9H159.6z"/>
	<path class="st5" d="M176.9,148.1v3.4h-0.5c-0.2-0.8-0.3-1-0.5-1.5c-0.5-0.9-1.3-1.4-2.3-1.4c-1.8,0-2.7,1.5-2.7,4.5
		c0,1.3,0.1,2.4,0.4,3.2c0.4,1,1.1,1.5,2.2,1.5c0.5,0,0.9-0.1,1.6-0.4V155c0-0.7-0.1-0.8-1.1-0.8v-0.6c0.9,0.1,1.2,0.1,2,0.1
		c0.8,0,1.1,0,2-0.1v0.6c-0.9,0.1-1,0.2-1,0.9v2.2c-1.2,0.9-2.4,1.3-3.7,1.3c-2.8,0-4.5-1.9-4.5-5.1c0-3.2,1.7-5.1,4.5-5.1
		c1.1,0,1.9,0.3,2.7,1l0.5-1.1H176.9z"/>
	<path class="st5" d="M186.8,155.5l-0.5,2.8h-7.2v-0.6c1.1,0,1.3-0.2,1.3-1V150c0-0.9-0.2-1-1.3-1v-0.6h7.1l0.4,2.6h-0.5
		c-0.4-1.6-0.8-2.1-2-2.1h-1.8v3.9h1.7c0.7,0,0.8-0.2,0.9-1.2h0.6v3h-0.6c0-1-0.2-1.2-0.9-1.2h-1.7v3.5c0,0.6,0.1,0.8,0.9,0.8h0.8
		c1,0,1.4-0.3,1.9-1.2c0.2-0.4,0.3-0.6,0.4-1H186.8z"/>
	<path class="st5" d="M191.4,153.8v2.9c0,0.9,0.1,1,1.3,1v0.6c-1-0.1-1.3-0.1-2.2-0.1s-1.2,0-2.3,0.1v-0.6c1.1,0,1.3-0.2,1.3-1V150
		c0-0.9-0.2-1-1.3-1v-0.6h4.4c1.2,0,1.8,0.1,2.4,0.5c0.7,0.5,1.2,1.3,1.2,2.2c0,0.9-0.4,1.6-1.1,2c-0.4,0.2-0.6,0.3-1.3,0.5
		c0.7,0.2,1,0.5,1.4,1.4l0.8,1.8c0.4,0.9,0.6,1,1.2,1v0.6c-0.6,0-0.8,0-1.2,0c-0.4,0-0.6,0-1.3,0c-0.2-0.3-0.2-0.4-0.5-0.9l-1-2.4
		c-0.4-1-0.7-1.2-1.5-1.2H191.4z M191.4,153.2h0.8c1.3,0,2-0.7,2-2.1c0-1.5-0.6-2.2-1.9-2.2h-0.9V153.2z"/>
	<path class="st5" d="M205.8,155.5l-0.5,2.8h-7.2v-0.6c1.1,0,1.3-0.2,1.3-1V150c0-0.9-0.2-1-1.3-1v-0.6h7.1l0.4,2.6h-0.5
		c-0.4-1.6-0.8-2.1-2-2.1h-1.8v3.9h1.7c0.7,0,0.8-0.2,0.9-1.2h0.6v3h-0.6c0-1-0.2-1.2-0.9-1.2h-1.7v3.5c0,0.6,0.1,0.8,0.9,0.8h0.8
		c1,0,1.4-0.3,1.9-1.2c0.2-0.4,0.3-0.6,0.4-1H205.8z"/>
	<path class="st5" d="M211.7,157.8v0.6c-1-0.1-1.4-0.1-2.2-0.1s-1.2,0-2.3,0.1v-0.6c1.1,0,1.3-0.2,1.3-1v-6.8c0-0.9-0.2-1-1.3-1
		v-0.6c1,0.1,1.5,0.1,2.3,0.1s1.2,0,2.2-0.1v0.6c-1.1,0-1.3,0.2-1.3,1v6.8C210.5,157.7,210.6,157.8,211.7,157.8z"/>
	<path class="st5" d="M221.3,153.1l2.3,3c0.4-0.5,0.7-1.1,0.7-1.6c0-0.3-0.2-0.4-0.8-0.4v-0.6l0.3,0c0.3,0,0.6,0,0.9,0
		c0.2,0,0.5,0,0.9,0l0.3,0v0.6c-0.5,0-0.6,0.1-0.7,0.2c0,0.1-0.1,0.1-0.1,0.2c0,0.1,0,0.2-0.1,0.3c-0.2,0.7-0.4,1.2-0.8,1.8l0.4,0.6
		c0.4,0.6,0.6,0.7,1.2,0.7v0.4c-0.6,0-0.8,0-1.1,0c-0.4,0-0.6,0-1.2,0l-0.5-0.7c-0.9,0.6-1.5,0.8-2.6,0.8c-2,0-3.3-1.1-3.3-2.7
		c0-0.9,0.3-1.6,1-2.1c0.3-0.3,0.4-0.4,1.1-0.8l-0.2-0.2c-0.6-0.9-0.8-1.2-0.8-1.8c0-1.2,1.1-2.1,2.6-2.1c1.3,0,2.2,0.9,2.2,2.1
		C222.9,151.5,222.5,152.1,221.3,153.1z M220,154c-0.9,0.6-1.3,1.2-1.3,2c0,1.1,0.8,1.8,1.9,1.8c0.6,0,1.1-0.1,1.8-0.5L220,154z
		 M220.4,151.9c1-0.7,1.4-1.2,1.4-1.8c0-0.6-0.4-1-1-1c-0.7,0-1.2,0.5-1.2,1.2C219.6,150.7,219.8,151.1,220.4,151.9z"/>
	<path class="st5" d="M234.1,154.1v2.7c0,0.9,0.1,1,1.3,1v0.6c-1-0.1-1.4-0.1-2.2-0.1c-0.8,0-1.2,0-2.3,0.1v-0.6
		c1.1,0,1.3-0.2,1.3-1V150c0-0.9-0.2-1-1.3-1v-0.6h4.4c1.2,0,1.8,0.1,2.4,0.5c0.8,0.5,1.3,1.4,1.3,2.3c0,0.9-0.5,1.8-1.2,2.3
		c-0.5,0.4-1.3,0.6-2.2,0.6H234.1z M234.1,153.5h0.6c1.4,0,2.1-0.7,2.1-2.3c0-1.6-0.7-2.3-2.1-2.3h-0.7V153.5z"/>
	<path class="st5" d="M243.9,155.6h-3.3l-0.4,1c-0.1,0.4-0.2,0.5-0.2,0.7c0,0.3,0.2,0.4,1,0.5v0.6c-0.8-0.1-1.1-0.1-1.6-0.1
		c-0.5,0-0.7,0-1.6,0.1v-0.6c1-0.1,1.3-0.3,1.7-1.5l3.3-8.3l3.3,8.8c0.3,0.8,0.6,1,1.5,1.1v0.6c-1-0.1-1.3-0.1-2.3-0.1
		c-0.9,0-1.3,0-2.3,0.1v-0.6l0.3,0c0.6,0,0.7-0.1,0.7-0.4c0-0.1,0-0.1,0-0.3l-0.1-0.3L243.9,155.6z M240.9,155h2.8l-1.3-3.9
		L240.9,155z"/>
	<path class="st5" d="M251.9,153.8v2.9c0,0.9,0.1,1,1.3,1v0.6c-1-0.1-1.3-0.1-2.2-0.1c-0.8,0-1.2,0-2.3,0.1v-0.6
		c1.1,0,1.3-0.2,1.3-1V150c0-0.9-0.2-1-1.3-1v-0.6h4.4c1.2,0,1.8,0.1,2.4,0.5c0.7,0.5,1.2,1.3,1.2,2.2c0,0.9-0.4,1.6-1.1,2
		c-0.4,0.2-0.6,0.3-1.3,0.5c0.7,0.2,1,0.5,1.4,1.4l0.8,1.8c0.4,0.9,0.6,1,1.2,1v0.6c-0.6,0-0.8,0-1.2,0c-0.4,0-0.6,0-1.3,0
		c-0.2-0.3-0.2-0.4-0.5-0.9l-1-2.4c-0.4-1-0.7-1.2-1.5-1.2H251.9z M252,153.2h0.8c1.3,0,2-0.7,2-2.1c0-1.5-0.6-2.2-1.9-2.2H252
		V153.2z"/>
	<path class="st5" d="M263.2,148.9v7.8c0,0.9,0.1,1,1.3,1v0.6c-1-0.1-1.3-0.1-2.2-0.1c-0.9,0-1.3,0-2.3,0.1v-0.6
		c1.1,0,1.3-0.1,1.3-1v-7.8h-0.4c-1.2,0-1.8,0.6-2.1,2.2h-0.5l0.5-2.8h7.2l0.5,2.8h-0.5c-0.4-1.6-0.9-2.2-2.1-2.2H263.2z"/>
	<path class="st5" d="M270.5,154l-2-3.9c-0.5-0.9-0.7-1.2-1.5-1.2v-0.6c0.9,0.1,1.3,0.1,2.2,0.1c0.9,0,1.2,0,2.2-0.1v0.6
		c-0.8,0-1,0.1-1,0.5c0,0.1,0.1,0.3,0.2,0.6l1.6,3.3l1.6-3.2c0.2-0.3,0.2-0.6,0.2-0.7c0-0.3-0.2-0.4-0.9-0.4v-0.6
		c0.7,0,0.9,0.1,1.4,0.1c0.5,0,0.7,0,1.4-0.1v0.6c-0.8,0.1-1,0.2-1.4,0.9l-2.1,4.2v2.7c0,0.9,0.1,1,1.3,1v0.6
		c-1-0.1-1.4-0.1-2.2-0.1c-0.8,0-1.2,0-2.2,0.1v-0.6c1.1,0,1.3-0.1,1.3-1V154z"/>
	<path class="st5" d="M276.6,155.1h0.5c0.1,0.9,0.2,1.1,0.6,1.7c0.4,0.7,1.3,1.1,2.1,1.1c1.1,0,1.9-0.7,1.9-1.7c0-0.5-0.3-1-0.8-1.4
		c-0.2-0.1-0.4-0.3-0.7-0.5c-0.1,0-0.3-0.2-0.7-0.4c-1.4-0.8-1.9-1.1-2.2-1.6c-0.3-0.4-0.5-0.9-0.5-1.5c0-1.6,1.3-2.6,3.2-2.6
		c0.9,0,1.5,0.2,2.2,0.9l0.5-1h0.3v3.1h-0.5c-0.3-1.6-1.1-2.4-2.3-2.4c-1,0-1.7,0.7-1.7,1.6c0,0.7,0.3,0.9,1.5,1.6
		c0.3,0.2,0.5,0.3,0.7,0.4l0.7,0.4c1,0.6,1.4,0.9,1.7,1.5c0.2,0.4,0.3,0.8,0.3,1.3c0,1.7-1.3,3-3.2,3c-1,0-1.8-0.3-2.7-1l-0.6,1.1
		h-0.3V155.1z"/>
	<path class="st5" d="M292.5,155.5l-0.5,2.8h-7.2v-0.6c1.1,0,1.3-0.2,1.3-1V150c0-0.9-0.2-1-1.3-1v-0.6h7.1l0.4,2.6h-0.5
		c-0.4-1.6-0.8-2.1-2-2.1H288v3.9h1.7c0.7,0,0.8-0.2,0.9-1.2h0.6v3h-0.6c0-1-0.2-1.2-0.9-1.2H288v3.5c0,0.6,0.1,0.8,0.9,0.8h0.8
		c1,0,1.4-0.3,1.9-1.2c0.2-0.4,0.3-0.6,0.4-1H292.5z"/>
	<path class="st5" d="M297.1,153.8v2.9c0,0.9,0.1,1,1.3,1v0.6c-1-0.1-1.3-0.1-2.2-0.1c-0.8,0-1.2,0-2.3,0.1v-0.6
		c1.1,0,1.3-0.2,1.3-1V150c0-0.9-0.2-1-1.3-1v-0.6h4.4c1.2,0,1.8,0.1,2.4,0.5c0.7,0.5,1.2,1.3,1.2,2.2c0,0.9-0.4,1.6-1.1,2
		c-0.4,0.2-0.6,0.3-1.3,0.5c0.7,0.2,1,0.5,1.4,1.4l0.8,1.8c0.4,0.9,0.6,1,1.2,1v0.6c-0.6,0-0.8,0-1.2,0c-0.4,0-0.6,0-1.3,0
		c-0.2-0.3-0.2-0.4-0.5-0.9l-1-2.4c-0.4-1-0.7-1.2-1.5-1.2H297.1z M297.1,153.2h0.8c1.3,0,2-0.7,2-2.1c0-1.5-0.6-2.2-1.9-2.2h-0.9
		V153.2z"/>
	<path class="st5" d="M308.6,158.5h-0.4c-0.1-0.5-0.3-0.9-0.6-1.7l-0.1-0.3l-2.4-6.4c-0.4-1-0.6-1.2-1.4-1.3v-0.6
		c0.9,0.1,1.3,0.1,2.2,0.1c0.9,0,1.2,0,2.2-0.1v0.6c-0.8,0.1-1,0.2-1,0.5c0,0.1,0,0.2,0.2,0.7l2,5.5l2.1-5.5
		c0.1-0.2,0.1-0.3,0.1-0.4c0-0.1,0.1-0.2,0.1-0.3c0-0.3-0.2-0.4-1-0.4v-0.6c0.7,0,0.9,0.1,1.4,0.1c0.5,0,0.8,0,1.4-0.1v0.6
		c-0.7,0.1-1.1,0.4-1.4,1.1l-2.6,6.7l-0.1,0.4c-0.1,0.2-0.3,0.7-0.4,1.2L308.6,158.5z"/>
	<path class="st5" d="M318.6,157.8v0.6c-1-0.1-1.4-0.1-2.2-0.1c-0.8,0-1.2,0-2.3,0.1v-0.6c1.1,0,1.3-0.2,1.3-1v-6.8
		c0-0.9-0.2-1-1.3-1v-0.6c1,0.1,1.5,0.1,2.3,0.1c0.8,0,1.2,0,2.2-0.1v0.6c-1.1,0-1.3,0.2-1.3,1v6.8
		C317.4,157.7,317.5,157.8,318.6,157.8z"/>
	<path class="st5" d="M327.6,154.8h0.5c-0.1,2.3-1.5,3.8-3.7,3.8c-2.5,0-4.2-2-4.2-5.1c0-3.4,1.6-5.4,4.3-5.4c1.1,0,1.9,0.3,2.6,1.1
		l0.5-1.1h0.3v3.4h-0.5c-0.2-0.8-0.3-1.1-0.6-1.6c-0.4-0.7-1.2-1.2-2.1-1.2c-1,0-1.6,0.5-2,1.4c-0.3,0.8-0.5,1.9-0.5,3.1
		c0,2.8,0.9,4.2,2.6,4.2C326.4,157.5,327.5,156.4,327.6,154.8z"/>
	<path class="st5" d="M337.4,155.5l-0.5,2.8h-7.2v-0.6c1.1,0,1.3-0.2,1.3-1V150c0-0.9-0.2-1-1.3-1v-0.6h7.1l0.4,2.6h-0.5
		c-0.4-1.6-0.8-2.1-2-2.1H333v3.9h1.7c0.7,0,0.8-0.2,0.9-1.2h0.6v3h-0.6c0-1-0.2-1.2-0.9-1.2H333v3.5c0,0.6,0.1,0.8,0.9,0.8h0.8
		c1,0,1.4-0.3,1.9-1.2c0.2-0.4,0.3-0.6,0.4-1H337.4z"/>
</g>
</svg>
