<?xml version="1.0" encoding="UTF-8"?>
<svg id="Ebene_1" xmlns="http://www.w3.org/2000/svg" version="1.1" viewBox="0 0 600 70">
  <!-- Generator: Adobe Illustrator 29.2.1, SVG Export Plug-In . SVG Version: 2.1.0 Build 116)  -->
  <defs>
    <style>
      .st0 {
        fill: #68726a;
      }

      .st1 {
        fill: #f6e700;
      }

      .st2 {
        fill: #d2c6af;
      }

      .st3 {
        fill: #fff;
      }

      .st4 {
        fill: #89a488;
      }

      .st5 {
        fill: #2a3716;
      }

      .st6 {
        display: none;
      }
    </style>
  </defs>
  <g id="Waldgeflüster_x5F_white">
    <g id="_x3F_">
      <path class="st3" d="M589.7,36h-4V14.8c0-2.1.9-3.7,2.2-4.9,1.4-1.2,2.5-1.8,4.9-1.8s2.3.2,3.2.5,1.7.8,2.3,1.4c.7.6,1.1,1.3,1.4,2.1.4.8.3,1.7.3,2.8v21.2c0,3.6-4.3,5.2-4.3,10.3v12.6h-3.9v-13.3c0-5.2,4.2-7.1,4.2-10.8V14.9c0-1-.2-1.8-.8-2.5-.5-.7-1.2-1-2.4-1s-1.9.3-2.5,1c-.6.7-.8,1.5-.8,2.5v21ZM593.8,63.9c-1.4,0-2.7,1.2-2.7,2.7s1.2,2.7,2.7,2.7,2.7-1.2,2.7-2.7-1.1-2.7-2.7-2.7Z"/>
    </g>
    <path id="R" class="st3" d="M552.3,12c1.1,0,2.1.4,2.7,1.1.5.6.9,1.4.9,2.5v18.9c0,1.1-.4,1.9-.9,2.5-.6.7-1.7,1-2.7,1.1h-2.9V12h2.9ZM559.8,15.6c0-2.1-.8-3.8-2-4.9-1.4-1.2-2.9-1.8-5.4-1.8h-6.7v60.1h3.8v-27.3h3.1c1.1,0,2,.4,2.6,1.1.5.6.9,1.4.9,2.4v23.8h3.8v-24.4c0-2.1-.8-3.8-2-4.9,0,0-.2-.2-.2-.2,0,0,.2-.2.2-.2,1.3-1.1,2-2.8,2-4.9V15.6Z"/>
    <polygon id="E" class="st3" points="514.6 12.6 514.6 8.8 502.6 8.8 502.6 69 514.6 69 514.6 65.2 506.4 65.2 506.4 41.7 511.8 41.7 511.8 38 506.4 38 506.4 12.6 514.6 12.6"/>
    <polygon id="T" class="st3" points="457.5 8.9 457.5 12.6 462.7 12.6 462.7 69 466.4 69 466.4 12.6 471.6 12.6 471.6 8.9 457.5 8.9"/>
    <path id="S" class="st3" d="M426.5,15.9c0-2.1-.8-3.8-2-5-1.4-1.2-3-1.8-5.4-1.8s-2.3.2-3.3.5c-.9.3-1.7.8-2.4,1.4-.6.5-1.1,1.3-1.5,2-.4.8-.5,1.8-.5,2.9,0,2.9,0,5.5.2,7.8.3,2.3.8,4.4,1.3,6.4.5,1.9,1.1,3.7,1.7,5.3.7,1.7,2,4.9,2,4.9.7,1.6,1.2,3.2,1.9,4.9.8,2.3,1.5,5,2,7.8.6,2.9.8,6.2.8,10.1s-.2,1.8-.8,2.5c-.5.7-1.7,1-2.8,1s-2.3-.3-2.9-1c-.5-.7-.8-1.5-.8-2.5v-12h-3.9v12c0,2.1.8,3.7,2,4.9,1.4,1.2,3,1.8,5.4,1.8s2.3-.2,3.3-.5c.9-.4,1.7-.8,2.4-1.4.6-.6,1.1-1.3,1.5-2.1.4-.8.5-1.7.5-2.8,0-2.9,0-5.6-.2-7.8-.3-2.3-.8-4.4-1.3-6.4-.5-2-1.1-3.8-1.7-5.4-.5-1.1-.8-2-1.2-3.2-1-2-1.9-4.3-2.7-6.6-.8-2.3-1.5-5-2-7.8-.6-2.9-.8-6.2-.8-10s.2-1.9.8-2.5c.5-.7,1.7-1.1,2.8-1.1s2.3.4,2.9,1.1c.5.6.9,1.4.9,2.5v12h3.8v-12Z"/>
    <g id="_Ü" data-name="Ü">
      <path id="U" class="st3" d="M375.3,62.5c0,1-.2,1.8-.8,2.5-.6.7-1.4,1-2.5,1s-1.8-.3-2.3-1c-.6-.7-.8-1.5-.8-2.5V8.7h-3.9v53.8c0,1.1,0,2,.3,2.8.3.8.7,1.4,1.4,2,.7.6,1.4,1.1,2.3,1.4,1,.3,2,.5,3.2.5,2.4,0,3.5-.6,4.9-1.8,1.3-1.1,2.2-2.7,2.2-4.8V8.7h-3.8v53.8Z"/>
      <g id="Punkte">
        <path class="st3" d="M367.1,5.7c1.5,0,2.7-1.2,2.7-2.7s-1.2-2.7-2.7-2.7-2.7,1.2-2.7,2.7,1.2,2.7,2.7,2.7"/>
        <path class="st3" d="M377.1,5.7c1.5,0,2.7-1.2,2.7-2.7s-1.2-2.7-2.7-2.7-2.7,1.2-2.7,2.7,1.2,2.7,2.7,2.7"/>
      </g>
    </g>
    <polygon id="L" class="st3" points="325.9 8.8 322.1 8.8 322.1 69 334 69 334 65.2 325.9 65.2 325.9 8.8"/>
    <polygon id="F" class="st3" points="291.2 8.8 279.1 8.8 279.1 69 282.9 69 282.9 41.7 288.3 41.7 288.3 38 282.9 38 282.9 12.6 291.2 12.6 291.2 8.8"/>
    <polygon id="E1" data-name="E" class="st3" points="248.1 12.6 248.1 8.8 236.1 8.8 236.1 69 248.1 69 248.1 65.2 239.9 65.2 239.9 41.7 245.3 41.7 245.3 38 239.9 38 239.9 12.6 248.1 12.6"/>
    <path id="G" class="st3" d="M205.1,32.1V15c0-2.1-.9-3.7-2.2-4.9-1.4-1.2-2.5-1.8-4.9-1.8s-2.2.2-3.2.5c-.9.3-1.6.8-2.3,1.3-.7.6-1.1,1.3-1.4,2.1-.4.8-.3,1.7-.3,2.8v47.4c0,1.1,0,2,.3,2.8.3.8.7,1.4,1.4,2,.7.6,1.4,1.1,2.3,1.4,1,.3,2,.5,3.2.5,2.4,0,3.5-.6,4.9-1.8,1.3-1.1,2.2-2.7,2.2-4.8v-22h-6.2v3.8h2.4v18.1c0,1-.2,1.8-.8,2.5-.6.7-1.4,1-2.5,1s-1.8-.3-2.3-1c-.6-.7-.8-1.5-.8-2.5V15c0-1,.2-1.8.8-2.4.5-.7,1.2-1.1,2.3-1.1s1.9.4,2.5,1.1c.6.6.8,1.4.8,2.4v17.1h3.8Z"/>
    <path id="D" class="st3" d="M149.6,65.8V12h2.9c1.1,0,2.1.4,2.7,1.1.5.6.9,1.4.9,2.5v46.8c0,1-.4,1.8-.9,2.5-.6.7-1.7,1-2.7,1h-2.9ZM145.9,8.9v60.1h6.7c2.5,0,4.1-.6,5.4-1.8,1.3-1.2,2-2.8,2-4.9V15.6c0-2.1-.8-3.8-2-4.9-1.4-1.2-2.9-1.8-5.4-1.8h-6.7Z"/>
    <polygon id="L1" data-name="L" class="st3" points="106.8 8.8 103 8.8 103 69 114.9 69 114.9 65.2 106.8 65.2 106.8 8.8"/>
    <path id="A" class="st3" d="M64.9,30.5l2.2,24.4h-4.3l2.1-24.4ZM72,69l-5.3-60.2h-3.8l-5.3,60.2h3.8l.9-10.3h5l.9,10.3h3.8Z"/>
    <polygon id="W" class="st3" points="23 8.8 18.9 49.3 15.3 8.8 11.5 8.8 7.9 49.3 3.8 8.8 0 8.8 6.2 69 9.9 69 13.4 30 16.8 69 20.6 69 26.8 8.8 23 8.8"/>
  </g>
  <g id="Waldgeflüster_x5F_bright" class="st6">
    <g id="_x3F_1" data-name="_x3F_">
      <path class="st1" d="M589.7,36h-4V14.8c0-2.1.9-3.7,2.2-4.9,1.4-1.2,2.5-1.8,4.9-1.8s2.3.2,3.2.5,1.7.8,2.3,1.4c.7.6,1.1,1.3,1.4,2.1.4.8.3,1.7.3,2.8v21.2c0,3.6-4.3,5.2-4.3,10.3v12.6h-3.9v-13.3c0-5.2,4.2-7.1,4.2-10.8V14.9c0-1-.2-1.8-.8-2.5-.5-.7-1.2-1-2.4-1s-1.9.3-2.5,1c-.6.7-.8,1.5-.8,2.5v21ZM593.8,63.9c-1.4,0-2.7,1.2-2.7,2.7s1.2,2.7,2.7,2.7,2.7-1.2,2.7-2.7-1.1-2.7-2.7-2.7Z"/>
    </g>
    <path id="R1" data-name="R" class="st2" d="M552.3,12c1.1,0,2.1.4,2.7,1.1.5.6.9,1.4.9,2.5v18.9c0,1.1-.4,1.9-.9,2.5-.6.7-1.7,1-2.7,1.1h-2.9V12h2.9ZM559.8,15.6c0-2.1-.8-3.8-2-4.9-1.4-1.2-2.9-1.8-5.4-1.8h-6.7v60.1h3.8v-27.3h3.1c1.1,0,2,.4,2.6,1.1.5.6.9,1.4.9,2.4v23.8h3.8v-24.4c0-2.1-.8-3.8-2-4.9,0,0-.2-.2-.2-.2,0,0,.2-.2.2-.2,1.3-1.1,2-2.8,2-4.9V15.6Z"/>
    <polygon id="E2" data-name="E" class="st2" points="514.6 12.6 514.6 8.8 502.6 8.8 502.6 69 514.6 69 514.6 65.2 506.4 65.2 506.4 41.7 511.8 41.7 511.8 38 506.4 38 506.4 12.6 514.6 12.6"/>
    <polygon id="T1" data-name="T" class="st2" points="457.5 8.9 457.5 12.6 462.7 12.6 462.7 69 466.4 69 466.4 12.6 471.6 12.6 471.6 8.9 457.5 8.9"/>
    <path id="S1" data-name="S" class="st2" d="M426.5,15.9c0-2.1-.8-3.8-2-5-1.4-1.2-3-1.8-5.4-1.8s-2.3.2-3.3.5c-.9.3-1.7.8-2.4,1.4-.6.5-1.1,1.3-1.5,2-.4.8-.5,1.8-.5,2.9,0,2.9,0,5.5.2,7.8.3,2.3.8,4.4,1.3,6.4.5,1.9,1.1,3.7,1.7,5.3.7,1.7,2,4.9,2,4.9.7,1.6,1.2,3.2,1.9,4.9.8,2.3,1.5,5,2,7.8.6,2.9.8,6.2.8,10.1s-.2,1.8-.8,2.5c-.5.7-1.7,1-2.8,1s-2.3-.3-2.9-1c-.5-.7-.8-1.5-.8-2.5v-12h-3.9v12c0,2.1.8,3.7,2,4.9,1.4,1.2,3,1.8,5.4,1.8s2.3-.2,3.3-.5c.9-.4,1.7-.8,2.4-1.4.6-.6,1.1-1.3,1.5-2.1.4-.8.5-1.7.5-2.8,0-2.9,0-5.6-.2-7.8-.3-2.3-.8-4.4-1.3-6.4-.5-2-1.1-3.8-1.7-5.4-.5-1.1-.8-2-1.2-3.2-1-2-1.9-4.3-2.7-6.6-.8-2.3-1.5-5-2-7.8-.6-2.9-.8-6.2-.8-10s.2-1.9.8-2.5c.5-.7,1.7-1.1,2.8-1.1s2.3.4,2.9,1.1c.5.6.9,1.4.9,2.5v12h3.8v-12Z"/>
    <g id="_Ü1" data-name="Ü">
      <path id="U1" data-name="U" class="st2" d="M375.3,62.5c0,1-.2,1.8-.8,2.5-.6.7-1.4,1-2.5,1s-1.8-.3-2.3-1c-.6-.7-.8-1.5-.8-2.5V8.7h-3.9v53.8c0,1.1,0,2,.3,2.8.3.8.7,1.4,1.4,2,.7.6,1.4,1.1,2.3,1.4,1,.3,2,.5,3.2.5,2.4,0,3.5-.6,4.9-1.8,1.3-1.1,2.2-2.7,2.2-4.8V8.7h-3.8v53.8Z"/>
      <g id="Punkte1" data-name="Punkte">
        <path class="st1" d="M367.1,5.7c1.5,0,2.7-1.2,2.7-2.7s-1.2-2.7-2.7-2.7-2.7,1.2-2.7,2.7,1.2,2.7,2.7,2.7"/>
        <path class="st1" d="M377.1,5.7c1.5,0,2.7-1.2,2.7-2.7s-1.2-2.7-2.7-2.7-2.7,1.2-2.7,2.7,1.2,2.7,2.7,2.7"/>
      </g>
    </g>
    <polygon id="L2" data-name="L" class="st2" points="325.9 8.8 322.1 8.8 322.1 69 334 69 334 65.2 325.9 65.2 325.9 8.8"/>
    <polygon id="F1" data-name="F" class="st2" points="291.2 8.8 279.1 8.8 279.1 69 282.9 69 282.9 41.7 288.3 41.7 288.3 38 282.9 38 282.9 12.6 291.2 12.6 291.2 8.8"/>
    <polygon id="E3" data-name="E" class="st2" points="248.1 12.6 248.1 8.8 236.1 8.8 236.1 69 248.1 69 248.1 65.2 239.9 65.2 239.9 41.7 245.3 41.7 245.3 38 239.9 38 239.9 12.6 248.1 12.6"/>
    <path id="G1" data-name="G" class="st2" d="M205.1,32.1V15c0-2.1-.9-3.7-2.2-4.9-1.4-1.2-2.5-1.8-4.9-1.8s-2.2.2-3.2.5c-.9.3-1.6.8-2.3,1.3-.7.6-1.1,1.3-1.4,2.1-.4.8-.3,1.7-.3,2.8v47.4c0,1.1,0,2,.3,2.8.3.8.7,1.4,1.4,2,.7.6,1.4,1.1,2.3,1.4,1,.3,2,.5,3.2.5,2.4,0,3.5-.6,4.9-1.8,1.3-1.1,2.2-2.7,2.2-4.8v-22h-6.2v3.8h2.4v18.1c0,1-.2,1.8-.8,2.5-.6.7-1.4,1-2.5,1s-1.8-.3-2.3-1c-.6-.7-.8-1.5-.8-2.5V15c0-1,.2-1.8.8-2.4.5-.7,1.2-1.1,2.3-1.1s1.9.4,2.5,1.1c.6.6.8,1.4.8,2.4v17.1h3.8Z"/>
    <path id="D1" data-name="D" class="st2" d="M149.6,65.8V12h2.9c1.1,0,2.1.4,2.7,1.1.5.6.9,1.4.9,2.5v46.8c0,1-.4,1.8-.9,2.5-.6.7-1.7,1-2.7,1h-2.9ZM145.9,8.9v60.1h6.7c2.5,0,4.1-.6,5.4-1.8,1.3-1.2,2-2.8,2-4.9V15.6c0-2.1-.8-3.8-2-4.9-1.4-1.2-2.9-1.8-5.4-1.8h-6.7Z"/>
    <polygon id="L3" data-name="L" class="st2" points="106.8 8.8 103 8.8 103 69 114.9 69 114.9 65.2 106.8 65.2 106.8 8.8"/>
    <path id="A1" data-name="A" class="st2" d="M64.9,30.5l2.2,24.4h-4.3l2.1-24.4ZM72,69l-5.3-60.2h-3.8l-5.3,60.2h3.8l.9-10.3h5l.9,10.3h3.8Z"/>
    <polygon id="W1" data-name="W" class="st2" points="23 8.8 18.9 49.3 15.3 8.8 11.5 8.8 7.9 49.3 3.8 8.8 0 8.8 6.2 69 9.9 69 13.4 30 16.8 69 20.6 69 26.8 8.8 23 8.8"/>
  </g>
  <g id="Waldgeflüster_x5F_green" class="st6">
    <g id="_x3F_2" data-name="_x3F_">
      <path class="st1" d="M589.7,36h-4V14.8c0-2.1.9-3.7,2.2-4.9,1.4-1.2,2.5-1.8,4.9-1.8s2.3.2,3.2.5,1.7.8,2.3,1.4c.7.6,1.1,1.3,1.4,2.1.4.8.3,1.7.3,2.8v21.2c0,3.6-4.3,5.2-4.3,10.3v12.6h-3.9v-13.3c0-5.2,4.2-7.1,4.2-10.8V14.9c0-1-.2-1.8-.8-2.5-.5-.7-1.2-1-2.4-1s-1.9.3-2.5,1c-.6.7-.8,1.5-.8,2.5v21ZM593.8,63.9c-1.4,0-2.7,1.2-2.7,2.7s1.2,2.7,2.7,2.7,2.7-1.2,2.7-2.7-1.1-2.7-2.7-2.7Z"/>
    </g>
    <path id="R2" data-name="R" class="st0" d="M552.3,12c1.1,0,2.1.4,2.7,1.1.5.6.9,1.4.9,2.5v18.9c0,1.1-.4,1.9-.9,2.5-.6.7-1.7,1-2.7,1.1h-2.9V12h2.9ZM559.8,15.6c0-2.1-.8-3.8-2-4.9-1.4-1.2-2.9-1.8-5.4-1.8h-6.7v60.1h3.8v-27.3h3.1c1.1,0,2,.4,2.6,1.1.5.6.9,1.4.9,2.4v23.8h3.8v-24.4c0-2.1-.8-3.8-2-4.9,0,0-.2-.2-.2-.2,0,0,.2-.2.2-.2,1.3-1.1,2-2.8,2-4.9V15.6Z"/>
    <polygon id="E4" data-name="E" class="st0" points="514.6 12.6 514.6 8.8 502.6 8.8 502.6 69 514.6 69 514.6 65.2 506.4 65.2 506.4 41.7 511.8 41.7 511.8 38 506.4 38 506.4 12.6 514.6 12.6"/>
    <polygon id="T2" data-name="T" class="st0" points="457.5 8.9 457.5 12.6 462.7 12.6 462.7 69 466.4 69 466.4 12.6 471.6 12.6 471.6 8.9 457.5 8.9"/>
    <path id="S2" data-name="S" class="st0" d="M426.5,15.9c0-2.1-.8-3.8-2-5-1.4-1.2-3-1.8-5.4-1.8s-2.3.2-3.3.5c-.9.3-1.7.8-2.4,1.4-.6.5-1.1,1.3-1.5,2-.4.8-.5,1.8-.5,2.9,0,2.9,0,5.5.2,7.8.3,2.3.8,4.4,1.3,6.4.5,1.9,1.1,3.7,1.7,5.3.7,1.7,2,4.9,2,4.9.7,1.6,1.2,3.2,1.9,4.9.8,2.3,1.5,5,2,7.8.6,2.9.8,6.2.8,10.1s-.2,1.8-.8,2.5c-.5.7-1.7,1-2.8,1s-2.3-.3-2.9-1c-.5-.7-.8-1.5-.8-2.5v-12h-3.9v12c0,2.1.8,3.7,2,4.9,1.4,1.2,3,1.8,5.4,1.8s2.3-.2,3.3-.5c.9-.4,1.7-.8,2.4-1.4.6-.6,1.1-1.3,1.5-2.1.4-.8.5-1.7.5-2.8,0-2.9,0-5.6-.2-7.8-.3-2.3-.8-4.4-1.3-6.4-.5-2-1.1-3.8-1.7-5.4-.5-1.1-.8-2-1.2-3.2-1-2-1.9-4.3-2.7-6.6-.8-2.3-1.5-5-2-7.8-.6-2.9-.8-6.2-.8-10s.2-1.9.8-2.5c.5-.7,1.7-1.1,2.8-1.1s2.3.4,2.9,1.1c.5.6.9,1.4.9,2.5v12h3.8v-12Z"/>
    <g id="_Ü2" data-name="Ü">
      <path id="U2" data-name="U" class="st0" d="M375.3,62.5c0,1-.2,1.8-.8,2.5-.6.7-1.4,1-2.5,1s-1.8-.3-2.3-1c-.6-.7-.8-1.5-.8-2.5V8.7h-3.9v53.8c0,1.1,0,2,.3,2.8.3.8.7,1.4,1.4,2,.7.6,1.4,1.1,2.3,1.4,1,.3,2,.5,3.2.5,2.4,0,3.5-.6,4.9-1.8,1.3-1.1,2.2-2.7,2.2-4.8V8.7h-3.8v53.8Z"/>
      <g id="Punkte2" data-name="Punkte">
        <path class="st1" d="M367.1,5.7c1.5,0,2.7-1.2,2.7-2.7s-1.2-2.7-2.7-2.7-2.7,1.2-2.7,2.7,1.2,2.7,2.7,2.7"/>
        <path class="st1" d="M377.1,5.7c1.5,0,2.7-1.2,2.7-2.7s-1.2-2.7-2.7-2.7-2.7,1.2-2.7,2.7,1.2,2.7,2.7,2.7"/>
      </g>
    </g>
    <polygon id="L4" data-name="L" class="st0" points="325.9 8.8 322.1 8.8 322.1 69 334 69 334 65.2 325.9 65.2 325.9 8.8"/>
    <polygon id="F2" data-name="F" class="st0" points="291.2 8.8 279.1 8.8 279.1 69 282.9 69 282.9 41.7 288.3 41.7 288.3 38 282.9 38 282.9 12.6 291.2 12.6 291.2 8.8"/>
    <polygon id="E5" data-name="E" class="st0" points="248.1 12.6 248.1 8.8 236.1 8.8 236.1 69 248.1 69 248.1 65.2 239.9 65.2 239.9 41.7 245.3 41.7 245.3 38 239.9 38 239.9 12.6 248.1 12.6"/>
    <path id="G2" data-name="G" class="st0" d="M205.1,32.1V15c0-2.1-.9-3.7-2.2-4.9-1.4-1.2-2.5-1.8-4.9-1.8s-2.2.2-3.2.5c-.9.3-1.6.8-2.3,1.3-.7.6-1.1,1.3-1.4,2.1-.4.8-.3,1.7-.3,2.8v47.4c0,1.1,0,2,.3,2.8.3.8.7,1.4,1.4,2,.7.6,1.4,1.1,2.3,1.4,1,.3,2,.5,3.2.5,2.4,0,3.5-.6,4.9-1.8,1.3-1.1,2.2-2.7,2.2-4.8v-22h-6.2v3.8h2.4v18.1c0,1-.2,1.8-.8,2.5-.6.7-1.4,1-2.5,1s-1.8-.3-2.3-1c-.6-.7-.8-1.5-.8-2.5V15c0-1,.2-1.8.8-2.4.5-.7,1.2-1.1,2.3-1.1s1.9.4,2.5,1.1c.6.6.8,1.4.8,2.4v17.1h3.8Z"/>
    <path id="D2" data-name="D" class="st0" d="M149.6,65.8V12h2.9c1.1,0,2.1.4,2.7,1.1.5.6.9,1.4.9,2.5v46.8c0,1-.4,1.8-.9,2.5-.6.7-1.7,1-2.7,1h-2.9ZM145.9,8.9v60.1h6.7c2.5,0,4.1-.6,5.4-1.8,1.3-1.2,2-2.8,2-4.9V15.6c0-2.1-.8-3.8-2-4.9-1.4-1.2-2.9-1.8-5.4-1.8h-6.7Z"/>
    <polygon id="L5" data-name="L" class="st0" points="106.8 8.8 103 8.8 103 69 114.9 69 114.9 65.2 106.8 65.2 106.8 8.8"/>
    <path id="A2" data-name="A" class="st0" d="M64.9,30.5l2.2,24.4h-4.3l2.1-24.4ZM72,69l-5.3-60.2h-3.8l-5.3,60.2h3.8l.9-10.3h5l.9,10.3h3.8Z"/>
    <polygon id="W2" data-name="W" class="st0" points="23 8.8 18.9 49.3 15.3 8.8 11.5 8.8 7.9 49.3 3.8 8.8 0 8.8 6.2 69 9.9 69 13.4 30 16.8 69 20.6 69 26.8 8.8 23 8.8"/>
  </g>
  <g id="Waldgeflüster_x5F_darkgreen" class="st6">
    <g id="_x3F_3" data-name="_x3F_">
      <path class="st4" d="M589.7,36h-4V14.8c0-2.1.9-3.7,2.2-4.9,1.4-1.2,2.5-1.8,4.9-1.8s2.3.2,3.2.5,1.7.8,2.3,1.4c.7.6,1.1,1.3,1.4,2.1.4.8.3,1.7.3,2.8v21.2c0,3.6-4.3,5.2-4.3,10.3v12.6h-3.9v-13.3c0-5.2,4.2-7.1,4.2-10.8V14.9c0-1-.2-1.8-.8-2.5-.5-.7-1.2-1-2.4-1s-1.9.3-2.5,1c-.6.7-.8,1.5-.8,2.5v21ZM593.8,63.9c-1.4,0-2.7,1.2-2.7,2.7s1.2,2.7,2.7,2.7,2.7-1.2,2.7-2.7-1.1-2.7-2.7-2.7Z"/>
    </g>
    <path id="R3" data-name="R" class="st5" d="M552.3,12c1.1,0,2.1.4,2.7,1.1.5.6.9,1.4.9,2.5v18.9c0,1.1-.4,1.9-.9,2.5-.6.7-1.7,1-2.7,1.1h-2.9V12h2.9ZM559.8,15.6c0-2.1-.8-3.8-2-4.9-1.4-1.2-2.9-1.8-5.4-1.8h-6.7v60.1h3.8v-27.3h3.1c1.1,0,2,.4,2.6,1.1.5.6.9,1.4.9,2.4v23.8h3.8v-24.4c0-2.1-.8-3.8-2-4.9,0,0-.2-.2-.2-.2,0,0,.2-.2.2-.2,1.3-1.1,2-2.8,2-4.9V15.6Z"/>
    <polygon id="E6" data-name="E" class="st5" points="514.6 12.6 514.6 8.8 502.6 8.8 502.6 69 514.6 69 514.6 65.2 506.4 65.2 506.4 41.7 511.8 41.7 511.8 38 506.4 38 506.4 12.6 514.6 12.6"/>
    <polygon id="T3" data-name="T" class="st5" points="457.5 8.9 457.5 12.6 462.7 12.6 462.7 69 466.4 69 466.4 12.6 471.6 12.6 471.6 8.9 457.5 8.9"/>
    <path id="S3" data-name="S" class="st5" d="M426.5,15.9c0-2.1-.8-3.8-2-5-1.4-1.2-3-1.8-5.4-1.8s-2.3.2-3.3.5c-.9.3-1.7.8-2.4,1.4-.6.5-1.1,1.3-1.5,2-.4.8-.5,1.8-.5,2.9,0,2.9,0,5.5.2,7.8.3,2.3.8,4.4,1.3,6.4.5,1.9,1.1,3.7,1.7,5.3.7,1.7,2,4.9,2,4.9.7,1.6,1.2,3.2,1.9,4.9.8,2.3,1.5,5,2,7.8.6,2.9.8,6.2.8,10.1s-.2,1.8-.8,2.5c-.5.7-1.7,1-2.8,1s-2.3-.3-2.9-1c-.5-.7-.8-1.5-.8-2.5v-12h-3.9v12c0,2.1.8,3.7,2,4.9,1.4,1.2,3,1.8,5.4,1.8s2.3-.2,3.3-.5c.9-.4,1.7-.8,2.4-1.4.6-.6,1.1-1.3,1.5-2.1.4-.8.5-1.7.5-2.8,0-2.9,0-5.6-.2-7.8-.3-2.3-.8-4.4-1.3-6.4-.5-2-1.1-3.8-1.7-5.4-.5-1.1-.8-2-1.2-3.2-1-2-1.9-4.3-2.7-6.6-.8-2.3-1.5-5-2-7.8-.6-2.9-.8-6.2-.8-10s.2-1.9.8-2.5c.5-.7,1.7-1.1,2.8-1.1s2.3.4,2.9,1.1c.5.6.9,1.4.9,2.5v12h3.8v-12Z"/>
    <g id="_Ü3" data-name="Ü">
      <path id="U3" data-name="U" class="st5" d="M375.3,62.5c0,1-.2,1.8-.8,2.5-.6.7-1.4,1-2.5,1s-1.8-.3-2.3-1c-.6-.7-.8-1.5-.8-2.5V8.7h-3.9v53.8c0,1.1,0,2,.3,2.8.3.8.7,1.4,1.4,2,.7.6,1.4,1.1,2.3,1.4,1,.3,2,.5,3.2.5,2.4,0,3.5-.6,4.9-1.8,1.3-1.1,2.2-2.7,2.2-4.8V8.7h-3.8v53.8Z"/>
      <g id="Punkte3" data-name="Punkte">
        <path class="st4" d="M367.1,5.7c1.5,0,2.7-1.2,2.7-2.7s-1.2-2.7-2.7-2.7-2.7,1.2-2.7,2.7,1.2,2.7,2.7,2.7"/>
        <path class="st4" d="M377.1,5.7c1.5,0,2.7-1.2,2.7-2.7s-1.2-2.7-2.7-2.7-2.7,1.2-2.7,2.7,1.2,2.7,2.7,2.7"/>
      </g>
    </g>
    <polygon id="L6" data-name="L" class="st5" points="325.9 8.8 322.1 8.8 322.1 69 334 69 334 65.2 325.9 65.2 325.9 8.8"/>
    <polygon id="F3" data-name="F" class="st5" points="291.2 8.8 279.1 8.8 279.1 69 282.9 69 282.9 41.7 288.3 41.7 288.3 38 282.9 38 282.9 12.6 291.2 12.6 291.2 8.8"/>
    <polygon id="E7" data-name="E" class="st5" points="248.1 12.6 248.1 8.8 236.1 8.8 236.1 69 248.1 69 248.1 65.2 239.9 65.2 239.9 41.7 245.3 41.7 245.3 38 239.9 38 239.9 12.6 248.1 12.6"/>
    <path id="G3" data-name="G" class="st5" d="M205.1,32.1V15c0-2.1-.9-3.7-2.2-4.9-1.4-1.2-2.5-1.8-4.9-1.8s-2.2.2-3.2.5c-.9.3-1.6.8-2.3,1.3-.7.6-1.1,1.3-1.4,2.1-.4.8-.3,1.7-.3,2.8v47.4c0,1.1,0,2,.3,2.8.3.8.7,1.4,1.4,2,.7.6,1.4,1.1,2.3,1.4,1,.3,2,.5,3.2.5,2.4,0,3.5-.6,4.9-1.8,1.3-1.1,2.2-2.7,2.2-4.8v-22h-6.2v3.8h2.4v18.1c0,1-.2,1.8-.8,2.5-.6.7-1.4,1-2.5,1s-1.8-.3-2.3-1c-.6-.7-.8-1.5-.8-2.5V15c0-1,.2-1.8.8-2.4.5-.7,1.2-1.1,2.3-1.1s1.9.4,2.5,1.1c.6.6.8,1.4.8,2.4v17.1h3.8Z"/>
    <path id="D3" data-name="D" class="st5" d="M149.6,65.8V12h2.9c1.1,0,2.1.4,2.7,1.1.5.6.9,1.4.9,2.5v46.8c0,1-.4,1.8-.9,2.5-.6.7-1.7,1-2.7,1h-2.9ZM145.9,8.9v60.1h6.7c2.5,0,4.1-.6,5.4-1.8,1.3-1.2,2-2.8,2-4.9V15.6c0-2.1-.8-3.8-2-4.9-1.4-1.2-2.9-1.8-5.4-1.8h-6.7Z"/>
    <polygon id="L7" data-name="L" class="st5" points="106.8 8.8 103 8.8 103 69 114.9 69 114.9 65.2 106.8 65.2 106.8 8.8"/>
    <path id="A3" data-name="A" class="st5" d="M64.9,30.5l2.2,24.4h-4.3l2.1-24.4ZM72,69l-5.3-60.2h-3.8l-5.3,60.2h3.8l.9-10.3h5l.9,10.3h3.8Z"/>
    <polygon id="W3" data-name="W" class="st5" points="23 8.8 18.9 49.3 15.3 8.8 11.5 8.8 7.9 49.3 3.8 8.8 0 8.8 6.2 69 9.9 69 13.4 30 16.8 69 20.6 69 26.8 8.8 23 8.8"/>
  </g>
</svg>