<?xml version="1.0" encoding="UTF-8"?>
<svg id="Ebene_1" xmlns="http://www.w3.org/2000/svg" version="1.1" viewBox="0 0 600 70">
  <!-- Generator: Adobe Illustrator 29.2.1, SVG Export Plug-In . SVG Version: 2.1.0 Build 116)  -->
  <defs>
    <style>
      .st0 {
        fill: #1c3182;
      }

      .st1 {
        fill: #5dade2;
      }

      .st2 {
        fill: #fff;
      }

      .st3 {
        display: none;
      }
    </style>
  </defs>
  <g id="Wintergeflüster_x5F_white">
    <path class="st2" d="M24.4,12l-5.6,54.5h-3.4l-3.1-35.3-3.1,35.3h-3.4L.1,12h3.4l3.7,36.7,3.3-36.7h3.4l3.3,36.7,3.7-36.7h3.4Z"/>
    <path class="st2" d="M51.6,66.6V12h3.4v54.5h-3.4Z"/>
    <path class="st2" d="M91.7,12h3.4v54.5h-3.4l-6-34.5v34.5h-3.4V12h3.4l6,34.5V12Z"/>
    <path class="st2" d="M135.1,12.1v3.4h-4.7v51.1h-3.4V15.5h-4.7v-3.4h12.8Z"/>
    <path class="st2" d="M165.7,15.5v23h4.9v3.4h-4.9v21.3h7.5v3.4h-10.9V12h10.9v3.5h-7.5Z"/>
    <path class="st2" d="M213.3,35.2c0,1.9-.7,3.4-1.8,4.4,0,0-.1.1-.2.2,0,0,.1.1.2.2,1.2,1,1.8,2.5,1.8,4.4v22.1h-3.5v-21.6c0-.9-.3-1.6-.8-2.2-.5-.6-1.4-.9-2.3-1h-2.8v24.7h-3.4V12.1h6.1c2.2,0,3.7.5,4.9,1.6,1.2,1,1.8,2.5,1.8,4.4v17.1ZM203.9,14.9v23.5h2.7c1,0,1.9-.3,2.5-1,.5-.5.8-1.3.8-2.2v-17.1c0-1-.3-1.7-.8-2.2-.5-.6-1.5-.9-2.5-1h-2.7Z"/>
    <path class="st2" d="M249.8,33.1v-15.5c0-.9-.2-1.6-.7-2.2-.5-.6-1.2-1-2.2-1s-1.6.3-2.1,1c-.5.5-.7,1.3-.7,2.2v42.8c0,.9.1,1.6.7,2.2.5.6,1.1.9,2.1.9s1.7-.3,2.2-.9c.5-.6.7-1.4.7-2.2v-16.4h-2.2v-3.5h5.7v20c0,1.9-.8,3.3-2,4.4-1.2,1.1-2.2,1.6-4.4,1.6s-2-.1-2.9-.4c-.8-.3-1.4-.7-2-1.2s-1-1.2-1.2-1.8c-.3-.8-.3-1.6-.3-2.5V17.7c0-1,0-1.8.3-2.5.3-.7.6-1.4,1.2-1.9.6-.5,1.2-.9,2-1.2.9-.3,1.8-.5,2.9-.5,2.2,0,3.2.5,4.4,1.6,1.2,1.1,2,2.5,2,4.4v15.5h-3.5Z"/>
    <path class="st2" d="M284,15.5v23h4.9v3.4h-4.9v21.3h7.5v3.4h-10.9V12h10.9v3.5h-7.5Z"/>
    <path class="st2" d="M329.6,15.5h-7.5v23h4.9v3.4h-4.9v24.7h-3.4V12h10.9v3.5Z"/>
    <path class="st2" d="M360.2,63.2h7.4v3.4h-10.8V12h3.4v51.1Z"/>
    <path class="st2" d="M399.2,5.2c0,1.4-1.1,2.5-2.5,2.5s-2.5-1.1-2.5-2.5,1.1-2.5,2.5-2.5,2.5,1.1,2.5,2.5Z"/>
    <path class="st2" d="M404.2,60.6c0,.9-.2,1.6-.7,2.2-.5.6-1.2.9-2.2.9s-1.6-.3-2.1-.9c-.5-.6-.7-1.4-.7-2.2V11.9h-3.5v48.8c0,1,0,1.8.3,2.5.3.7.6,1.3,1.2,1.8s1.2,1,2,1.2c.9.3,1.8.4,2.9.4,2.2,0,3.2-.5,4.4-1.6,1.2-1,2-2.5,2-4.4V11.9h-3.5v48.7Z"/>
    <path class="st2" d="M408.4,5.2c0,1.4-1.1,2.5-2.5,2.5s-2.5-1.1-2.5-2.5,1.1-2.5,2.5-2.5,2.5,1.1,2.5,2.5Z"/>
    <path class="st2" d="M449.7,29.2h-3.5v-10.8c0-1-.3-1.7-.8-2.2-.5-.6-1.6-1-2.6-1s-2,.3-2.5,1c-.5.5-.7,1.3-.7,2.2,0,3.4.2,6.5.7,9.1.5,2.6,1.1,5,1.8,7.1.8,2.1,1.6,4.2,2.5,6,.3,1,.7,1.9,1.1,2.9.6,1.5,1.2,3.1,1.6,4.9.5,1.8.9,3.7,1.2,5.8.3,2,.2,4.4.2,7.1s-.1,1.8-.5,2.5-.8,1.4-1.4,1.9c-.6.5-1.4.9-2.2,1.2-.9.3-1.9.4-3,.4-2.2,0-3.7-.5-4.9-1.6-1.2-1.1-1.8-2.5-1.8-4.4v-10.9h3.5v10.9c0,.9.3,1.6.7,2.2.5.6,1.6.9,2.6.9s2-.3,2.5-.9c.5-.6.7-1.4.7-2.2,0-3.5-.2-6.5-.7-9.1-.5-2.6-1.1-5-1.8-7.1-.6-1.6-1.1-3-1.7-4.4,0,0-1.2-2.9-1.8-4.4-.6-1.5-1.2-3.1-1.6-4.8-.5-1.8-.9-3.7-1.2-5.8-.3-2.1-.2-4.5-.2-7.1s.1-1.8.5-2.6c.3-.7.8-1.4,1.4-1.8.6-.5,1.4-1,2.2-1.2.9-.3,2-.5,3-.5,2.2,0,3.7.5,4.9,1.6,1.2,1.1,1.8,2.6,1.8,4.5v10.8Z"/>
    <path class="st2" d="M489.7,12.1v3.4h-4.7v51.1h-3.4V15.5h-4.7v-3.4h12.8Z"/>
    <path class="st2" d="M520.4,15.5v23h4.9v3.4h-4.9v21.3h7.5v3.4h-10.9V12h10.9v3.5h-7.5Z"/>
    <path class="st2" d="M567.9,35.2c0,1.9-.7,3.4-1.8,4.4l-.2.2c0,0,.1.1.2.2,1.2,1,1.8,2.5,1.8,4.4v22.1h-3.5v-21.6c0-.9-.3-1.6-.8-2.2-.5-.6-1.4-.9-2.3-1h-2.8v24.7h-3.4V12.1h6.1c2.2,0,3.7.5,4.9,1.6,1.2,1,1.8,2.5,1.8,4.4v17.1ZM558.5,14.9v23.5h2.7c1,0,1.9-.3,2.5-1,.5-.5.8-1.3.8-2.2v-17.1c0-1-.3-1.7-.8-2.2-.5-.6-1.5-.9-2.5-1h-2.7Z"/>
    <path class="st2" d="M595.2,64.4c0-1.3,1-2.4,2.3-2.4s2.4,1.1,2.4,2.4-1,2.4-2.4,2.4-2.3-1.1-2.3-2.4ZM599.2,12v45.5h-3.3V12h3.3Z"/>
  </g>
  <g id="Wintergeflüster_x5F_blue" class="st3">
    <path class="st0" d="M24.4,12l-5.6,54.5h-3.4l-3.1-35.3-3.1,35.3h-3.4L.1,12h3.4l3.7,36.7,3.3-36.7h3.4l3.3,36.7,3.7-36.7h3.4Z"/>
    <path class="st0" d="M51.6,66.6V12h3.4v54.5h-3.4Z"/>
    <path class="st0" d="M91.7,12h3.4v54.5h-3.4l-6-34.5v34.5h-3.4V12h3.4l6,34.5V12Z"/>
    <path class="st0" d="M135.1,12.1v3.4h-4.7v51.1h-3.4V15.5h-4.7v-3.4h12.8Z"/>
    <path class="st0" d="M165.7,15.5v23h4.9v3.4h-4.9v21.3h7.5v3.4h-10.9V12h10.9v3.5h-7.5Z"/>
    <path class="st0" d="M213.3,35.2c0,1.9-.7,3.4-1.8,4.4,0,0-.1.1-.2.2,0,0,.1.1.2.2,1.2,1,1.8,2.5,1.8,4.4v22.1h-3.5v-21.6c0-.9-.3-1.6-.8-2.2-.5-.6-1.4-.9-2.3-1h-2.8v24.7h-3.4V12.1h6.1c2.2,0,3.7.5,4.9,1.6,1.2,1,1.8,2.5,1.8,4.4v17.1ZM203.9,14.9v23.5h2.7c1,0,1.9-.3,2.5-1,.5-.5.8-1.3.8-2.2v-17.1c0-1-.3-1.7-.8-2.2-.5-.6-1.5-.9-2.5-1h-2.7Z"/>
    <path class="st0" d="M249.8,33.1v-15.5c0-.9-.2-1.6-.7-2.2-.5-.6-1.2-1-2.2-1s-1.6.3-2.1,1c-.5.5-.7,1.3-.7,2.2v42.8c0,.9.1,1.6.7,2.2.5.6,1.1.9,2.1.9s1.7-.3,2.2-.9c.5-.6.7-1.4.7-2.2v-16.4h-2.2v-3.5h5.7v20c0,1.9-.8,3.3-2,4.4-1.2,1.1-2.2,1.6-4.4,1.6s-2-.1-2.9-.4c-.8-.3-1.4-.7-2-1.2s-1-1.2-1.2-1.8c-.3-.8-.3-1.6-.3-2.5V17.7c0-1,0-1.8.3-2.5.3-.7.6-1.4,1.2-1.9.6-.5,1.2-.9,2-1.2.9-.3,1.8-.5,2.9-.5,2.2,0,3.2.5,4.4,1.6,1.2,1.1,2,2.5,2,4.4v15.5h-3.5Z"/>
    <path class="st0" d="M284,15.5v23h4.9v3.4h-4.9v21.3h7.5v3.4h-10.9V12h10.9v3.5h-7.5Z"/>
    <path class="st0" d="M329.6,15.5h-7.5v23h4.9v3.4h-4.9v24.7h-3.4V12h10.9v3.5Z"/>
    <path class="st0" d="M360.2,63.2h7.4v3.4h-10.8V12h3.4v51.1Z"/>
    <path class="st1" d="M399.2,5.2c0,1.4-1.1,2.5-2.5,2.5s-2.5-1.1-2.5-2.5,1.1-2.5,2.5-2.5,2.5,1.1,2.5,2.5Z"/>
    <path class="st0" d="M404.2,60.6c0,.9-.2,1.6-.7,2.2-.5.6-1.2.9-2.2.9s-1.6-.3-2.1-.9c-.5-.6-.7-1.4-.7-2.2V11.9h-3.5v48.8c0,1,0,1.8.3,2.5.3.7.6,1.3,1.2,1.8s1.2,1,2,1.2c.9.3,1.8.4,2.9.4,2.2,0,3.2-.5,4.4-1.6,1.2-1,2-2.5,2-4.4V11.9h-3.5v48.7Z"/>
    <path class="st1" d="M408.4,5.2c0,1.4-1.1,2.5-2.5,2.5s-2.5-1.1-2.5-2.5,1.1-2.5,2.5-2.5,2.5,1.1,2.5,2.5Z"/>
    <path class="st0" d="M449.7,29.2h-3.5v-10.8c0-1-.3-1.7-.8-2.2-.5-.6-1.6-1-2.6-1s-2,.3-2.5,1c-.5.5-.7,1.3-.7,2.2,0,3.4.2,6.5.7,9.1.5,2.6,1.1,5,1.8,7.1.8,2.1,1.6,4.2,2.5,6,.3,1,.7,1.9,1.1,2.9.6,1.5,1.2,3.1,1.6,4.9.5,1.8.9,3.7,1.2,5.8.3,2,.2,4.4.2,7.1s-.1,1.8-.5,2.5-.8,1.4-1.4,1.9c-.6.5-1.4.9-2.2,1.2-.9.3-1.9.4-3,.4-2.2,0-3.7-.5-4.9-1.6-1.2-1.1-1.8-2.5-1.8-4.4v-10.9h3.5v10.9c0,.9.3,1.6.7,2.2.5.6,1.6.9,2.6.9s2-.3,2.5-.9c.5-.6.7-1.4.7-2.2,0-3.5-.2-6.5-.7-9.1-.5-2.6-1.1-5-1.8-7.1-.6-1.6-1.1-3-1.7-4.4,0,0-1.2-2.9-1.8-4.4-.6-1.5-1.2-3.1-1.6-4.8-.5-1.8-.9-3.7-1.2-5.8-.3-2.1-.2-4.5-.2-7.1s.1-1.8.5-2.6c.3-.7.8-1.4,1.4-1.8.6-.5,1.4-1,2.2-1.2.9-.3,2-.5,3-.5,2.2,0,3.7.5,4.9,1.6,1.2,1.1,1.8,2.6,1.8,4.5v10.8Z"/>
    <path class="st0" d="M489.7,12.1v3.4h-4.7v51.1h-3.4V15.5h-4.7v-3.4h12.8Z"/>
    <path class="st0" d="M520.4,15.5v23h4.9v3.4h-4.9v21.3h7.5v3.4h-10.9V12h10.9v3.5h-7.5Z"/>
    <path class="st0" d="M567.9,35.2c0,1.9-.7,3.4-1.8,4.4l-.2.2c0,0,.1.1.2.2,1.2,1,1.8,2.5,1.8,4.4v22.1h-3.5v-21.6c0-.9-.3-1.6-.8-2.2-.5-.6-1.4-.9-2.3-1h-2.8v24.7h-3.4V12.1h6.1c2.2,0,3.7.5,4.9,1.6,1.2,1,1.8,2.5,1.8,4.4v17.1ZM558.5,14.9v23.5h2.7c1,0,1.9-.3,2.5-1,.5-.5.8-1.3.8-2.2v-17.1c0-1-.3-1.7-.8-2.2-.5-.6-1.5-.9-2.5-1h-2.7Z"/>
    <path class="st1" d="M595.2,64.4c0-1.3,1-2.4,2.3-2.4s2.4,1.1,2.4,2.4-1,2.4-2.4,2.4-2.3-1.1-2.3-2.4ZM599.2,12v45.5h-3.3V12h3.3Z"/>
  </g>
</svg>